<?xml version="1.0" encoding="utf-8"?>
<!-- Generator: Adobe Illustrator 24.2.1, SVG Export Plug-In . SVG Version: 6.00 Build 0)  -->
<svg version="1.1" id="Layer_1" xmlns="http://www.w3.org/2000/svg" xmlns:xlink="http://www.w3.org/1999/xlink" x="0px" y="0px"
	 viewBox="0 0 255.21 504" style="enable-background:new 0 0 255.21 504;" xml:space="preserve">
<style type="text/css">
	.st0{fill:none;}
	.st1{fill:#6CB2B1;}
</style>
<g>
	<path class="st0" d="M59.31,363.22c6.03-4.55,8.13-9.86,7.75-17.69c-0.83-17.12-0.34-34.31-0.19-51.47
		c0.03-3.77-0.83-5.55-5.01-5.23c-4.47,0.34-9,0.26-13.49,0.02c-3.47-0.19-4.57,0.97-4.52,4.51c0.2,12.83,0.08,25.66,0.09,38.49
		c0,2.17,0,4.33,0,6.5c0,10.5-0.02,21,0.01,31.49c0,1.79-0.55,4.07,1.26,5.07c2.18,1.2,3.07-1.35,4.3-2.44
		C52.85,369.47,55.75,365.91,59.31,363.22z"/>
	<path class="st0" d="M171.63,486.64c-28.73,3.22-57.49,2.37-86.22-0.04c-3.64-0.31-4.56,0.76-5.04,3.93
		c-0.58,3.78,1.85,3.51,4.2,3.7c15.27,1.26,30.55,2.18,44.44,2.01c15.43,0.11,29.39-0.4,43.31-1.95c2.82-0.31,4.34-0.83,3.71-4.12
		C175.52,487.56,174.97,486.27,171.63,486.64z"/>
	<path class="st0" d="M48.01,283.23c4.98-0.25,9.99-0.26,14.97,0c3.19,0.17,4.01-1.05,3.92-3.99c-0.17-5.15-0.03-10.32-0.03-15.48
		c-0.01-14.13-0.02-28.25-0.06-42.38c-0.01-3.41,1.02-6.72-0.68-10.23c-3.63-7.47-6.71-15.21-10.04-22.82
		c-3.64-8.31-7.3-16.61-10.95-24.91c-0.4,0.08-0.8,0.17-1.21,0.25c0,12.97,0,25.95,0,38.92c0,25.45,0.06,50.9-0.06,76.35
		C43.86,282.16,44.66,283.4,48.01,283.23z"/>
	<path class="st0" d="M91.65,17.68c24.23-2.37,48.46-2.88,72.7-0.1c1.58,0.32,2.91,0.47,3.27-1.77c0.38-2.38-1.18-2.36-2.64-2.54
		c-24.56-3.06-49.13-2.26-73.69-0.03c-1.74,0.16-3.46,0.47-3.12,2.86C88.47,18.35,90.22,17.82,91.65,17.68z"/>
	<path class="st0" d="M213.12,288.57c-4.98,0.22-10,0.39-14.96-0.01c-4.67-0.37-6.19,0.88-6.13,5.88
		c0.23,19.45-0.05,38.91-0.21,58.36c-0.01,1.65,0.51,2.78,1.69,3.89c6.05,5.69,12,11.48,18.05,17.18c1,0.94,1.83,2.85,3.56,2.02
		c1.57-0.75,2.02-2.55,2.16-4.25c0.09-1.16,0.05-2.33,0.05-3.49c0-12.31,0-24.62,0.01-36.93c0-12.81-0.1-25.62,0.07-38.43
		C217.44,289.47,216.34,288.43,213.12,288.57z"/>
	<path class="st0" d="M216.68,161.81c-0.67,0.34-1.1,0.42-1.21,0.64c-8.3,17.53-14.59,35.97-23.95,53.03
		c-0.21,0.38-0.2,0.98-0.07,1.41c1.6,5.51,0.77,11.14,0.78,16.72c0.04,15.49-0.01,30.97-0.1,46.46c-0.01,2.21,0.5,3.39,3.02,3.35
		c6.33-0.1,12.66-0.01,18.98,0.01c1.72,0.01,3.48-0.8,2.94-2.44c-0.96-2.88,0.37-5.44,0.36-8.16c-0.15-34.95-0.08-69.91-0.11-104.86
		C217.32,166.04,217.76,164.03,216.68,161.81z"/>
	<path class="st0" d="M186.84,358.42c-10.23,2.7-20.77,2.56-31.19,3.01c-27.11,1.18-54.22,1.35-81.22-2.12
		c-1.36-0.17-2.6-0.53-3.69,0.63c-5.78,6.13-11.58,12.25-17.33,18.33c51.08,6.73,102.66,6.23,153.92,0.43
		c-6.28-6.71-12.45-13.33-18.68-19.89C188.28,358.44,187.38,358.28,186.84,358.42z"/>
	<path class="st0" d="M129.94,146.87c-8.96-0.12-19.26,0.29-29.53,1.34c-16.22,1.66-32.33,4-48.2,7.85
		c-2.83,0.69-3.4,1.55-2.17,4.33c6.92,15.67,13.72,31.39,20.38,47.17c1.22,2.89,2.53,3.31,5.58,2.65
		c22.58-4.89,45.47-6.09,68.48-4.88c12.96,0.68,25.98,1.84,38.47,5.27c5.08,1.39,6.08-0.07,7.69-3.87
		c6.28-14.85,12.78-29.6,19.24-44.37c2.54-5.81,2.56-5.8-3.87-7.23C181.4,149.69,156.52,146.72,129.94,146.87z"/>
	<path class="st1" d="M244.63,168.65c-2.95-1.51-6.09-2.69-9.22-3.79c-2.81-0.98-4.3-2.37-4.26-5.72
		c0.07-6.49-0.45-12.97-0.63-19.47c-0.82-29.29-1.55-58.59-2.43-87.88c-0.14-4.81-0.48-9.66-1.85-14.32
		c-4.16-14.09-13.1-24.32-27.32-27.54c-14.37-3.25-29.32-4.03-44.08-4.47c-31.24-0.95-62.42-0.54-93.53,3.7
		C41.73,11.83,29.72,27.65,28.3,44.82c-1.25,15.08-1.48,30.25-1.9,45.39c-0.61,21.64-1.03,43.29-1.44,64.94
		c-0.1,5.27-0.65,9.88-7.24,10.85c-1.91,0.28-3.73,1.39-5.53,2.24c-5.97,2.81-9.17,9.38-7.9,15.75c0.78,3.94,2.59,5.57,6.63,3.77
		c3.04-1.36,6.24-2.34,9.25-3.75c3.07-1.44,4.17-0.72,4.04,2.69c-0.31,8.15-0.6,16.31-0.62,24.46c-0.07,29.92-0.03,59.84-0.03,89.76
		c-0.15,34.65-0.73,69.3,0.48,103.94c0.6,17.14-0.37,34.32,1.09,51.44c1.68,19.65,18.78,38.12,38.16,40.8
		c17.32,2.39,34.78,3.4,52.25,3.95c23.5,0.74,46.93-0.73,70.32-2.96c25.64-2.44,42.44-18.04,44.64-43.58
		c1.57-18.21,1.55-36.6,1.55-54.91c-0.01-49.92,1.4-99.83-0.24-149.76c-0.37-11.24-0.53-22.64,0.2-33.99
		c0.6-9.27-0.3-18.63-0.48-27.96c-0.1-5.46,0.45-5.77,5.66-3.62c2.92,1.2,5.87,2.34,8.81,3.52c3.23,1.3,4.91,0.18,5.79-3.17
		C253.43,178.39,250.69,171.76,244.63,168.65z M209.88,162.36c-6.45,14.77-12.96,29.52-19.24,44.37c-1.61,3.8-2.61,5.26-7.69,3.87
		c-12.49-3.43-25.51-4.58-38.47-5.27c-23.02-1.21-45.91-0.01-68.48,4.88c-3.05,0.66-4.36,0.24-5.58-2.65
		c-6.67-15.78-13.46-31.5-20.38-47.17c-1.23-2.78-0.66-3.65,2.17-4.33c15.87-3.85,31.97-6.19,48.2-7.85
		c10.27-1.05,20.57-1.45,29.53-1.34c26.58-0.15,51.46,2.82,76.07,8.26C212.44,156.56,212.42,156.54,209.88,162.36z M190.69,12.92
		c9.06,0,16.4,3.51,16.4,7.84c0,4.33-7.34,7.84-16.4,7.84c-9.06,0-16.4-3.51-16.4-7.84C174.3,16.43,181.64,12.92,190.69,12.92z
		 M91.28,13.23c24.56-2.23,49.13-3.03,73.69,0.03c1.47,0.18,3.03,0.16,2.64,2.54c-0.36,2.25-1.69,2.09-3.27,1.77
		c-24.23-2.77-48.46-2.27-72.7,0.1c-1.43,0.14-3.17,0.67-3.49-1.59C87.82,13.71,89.53,13.39,91.28,13.23z M65.58,12.92
		c9.06,0,16.4,3.51,16.4,7.84c0,4.33-7.34,7.84-16.4,7.84c-9.06,0-16.4-3.51-16.4-7.84C49.19,16.43,56.53,12.92,65.58,12.92z
		 M43.93,202.61c0-12.97,0-25.95,0-38.92c0.4-0.08,0.8-0.17,1.21-0.25c3.65,8.3,7.32,16.6,10.95,24.91
		c3.33,7.62,6.41,15.35,10.04,22.82c1.7,3.51,0.67,6.82,0.68,10.23c0.04,14.13,0.05,28.25,0.06,42.38c0,5.16-0.13,10.32,0.03,15.48
		c0.09,2.94-0.73,4.16-3.92,3.99c-4.98-0.27-9.99-0.25-14.97,0c-3.36,0.17-4.15-1.07-4.14-4.27
		C43.99,253.51,43.94,228.06,43.93,202.61z M49.5,372.46c-1.22,1.09-2.12,3.65-4.3,2.44c-1.81-1-1.25-3.28-1.26-5.07
		c-0.03-10.5-0.01-21-0.01-31.49c0-2.17,0-4.33,0-6.5c-0.01-12.83,0.11-25.66-0.09-38.49c-0.06-3.54,1.05-4.7,4.52-4.51
		c4.49,0.24,9.02,0.33,13.49-0.02c4.18-0.32,5.04,1.46,5.01,5.23c-0.15,17.16-0.64,34.35,0.19,51.47
		c0.38,7.83-1.72,13.14-7.75,17.69C55.75,365.91,52.85,369.47,49.5,372.46z M172.31,494.3c-13.92,1.55-27.88,2.06-43.31,1.95
		c-13.89,0.16-29.17-0.76-44.44-2.01c-2.34-0.19-4.78,0.08-4.2-3.7c0.48-3.17,1.41-4.24,5.04-3.93c28.73,2.41,57.49,3.25,86.22,0.04
		c3.34-0.37,3.89,0.92,4.39,3.54C176.65,493.47,175.14,493.99,172.31,494.3z M53.4,378.27c5.75-6.08,11.54-12.2,17.33-18.33
		c1.09-1.16,2.34-0.8,3.69-0.63c27,3.47,54.11,3.3,81.22,2.12c10.42-0.45,20.96-0.31,31.19-3.01c0.54-0.14,1.45,0.02,1.81,0.39
		c6.23,6.56,12.4,13.18,18.68,19.89C156.06,384.5,104.49,385.01,53.4,378.27z M217.32,331.22c0,12.31,0,24.62-0.01,36.93
		c0,1.16,0.04,2.33-0.05,3.49c-0.13,1.7-0.58,3.5-2.16,4.25c-1.73,0.83-2.56-1.08-3.56-2.02c-6.04-5.7-12-11.49-18.05-17.18
		c-1.18-1.11-1.7-2.24-1.69-3.89c0.16-19.45,0.44-38.91,0.21-58.36c-0.06-5.01,1.46-6.26,6.13-5.88c4.96,0.4,9.98,0.23,14.96,0.01
		c3.23-0.14,4.32,0.9,4.27,4.22C217.22,305.6,217.32,318.41,217.32,331.22z M217.07,280.98c0.54,1.64-1.22,2.44-2.94,2.44
		c-6.33-0.03-12.66-0.11-18.98-0.01c-2.52,0.04-3.03-1.13-3.02-3.35c0.09-15.49,0.14-30.97,0.1-46.46
		c-0.01-5.58,0.82-11.21-0.78-16.72c-0.13-0.43-0.13-1.04,0.07-1.41c9.37-17.05,15.65-35.5,23.95-53.03
		c0.11-0.23,0.54-0.3,1.21-0.64c1.08,2.22,0.64,4.23,0.64,6.15c0.03,34.95-0.04,69.91,0.11,104.86
		C217.45,275.55,216.12,278.1,217.07,280.98z"/>
</g>
</svg>
