<svg xmlns="http://www.w3.org/2000/svg" viewBox="0 0 248.25 496.19"><defs><style>.cls-1{fill:none;}.cls-2{fill:#6cb2b1;}</style></defs><g id="Layer_2" data-name="Layer 2"><g id="Layer_1-2" data-name="Layer 1"><path class="cls-1" d="M55.29,358.19c6-4.56,8.13-9.86,7.75-17.69-.83-17.12-.34-34.32-.19-51.48,0-3.76-.83-5.55-5-5.23a101.21,101.21,0,0,1-13.49,0c-3.47-.19-4.57,1-4.52,4.51.2,12.83.08,25.66.09,38.49v6.5q0,15.74,0,31.49c0,1.79-.55,4.07,1.26,5.07,2.18,1.2,3.07-1.35,4.3-2.44C48.84,364.44,51.73,360.88,55.29,358.19Z"/><path class="cls-1" d="M167.62,481.6c-28.73,3.22-57.5,2.38-86.22,0-3.64-.31-4.56.76-5.05,3.93-.58,3.78,1.86,3.51,4.2,3.7,15.27,1.26,30.55,2.18,44.43,2a365.16,365.16,0,0,0,43.32-2c2.82-.31,4.34-.83,3.71-4.11C171.5,482.52,171,481.23,167.62,481.6Z"/><path class="cls-1" d="M44,278.2a141,141,0,0,1,15,0c3.19.17,4-1.05,3.92-4-.17-5.15,0-10.32,0-15.48q0-21.18-.06-42.38c0-3.41,1-6.71-.68-10.22-3.63-7.48-6.71-15.21-10-22.83-3.63-8.31-7.3-16.6-10.95-24.91l-1.21.26v38.92c0,25.45.06,50.9-.06,76.35C39.85,277.13,40.64,278.37,44,278.2Z"/><path class="cls-1" d="M87.63,12.64c24.23-2.37,48.47-2.87,72.7-.1,1.58.32,2.9.48,3.27-1.77S162.42,8.41,161,8.23C136.39,5.16,111.83,6,87.26,8.2c-1.74.15-3.46.47-3.12,2.86S86.2,12.78,87.63,12.64Z"/><path class="cls-1" d="M209.1,283.53a120.44,120.44,0,0,1-15,0c-4.67-.37-6.19.88-6.13,5.88.23,19.46,0,38.91-.21,58.37a4.8,4.8,0,0,0,1.69,3.89c6,5.69,12,11.48,18,17.18,1,.94,1.83,2.84,3.57,2,1.57-.75,2-2.55,2.15-4.26.09-1.16.05-2.33.05-3.49q0-18.47,0-36.93c0-12.81-.1-25.62.07-38.42C213.42,284.44,212.33,283.39,209.1,283.53Z"/><path class="cls-1" d="M212.66,156.77c-.67.35-1.1.42-1.2.64-8.31,17.53-14.59,36-24,53a2.12,2.12,0,0,0-.07,1.41c1.6,5.51.77,11.14.78,16.72q.06,23.24-.1,46.46c0,2.21.5,3.38,3,3.34,6.33-.1,12.66,0,19,0,1.72,0,3.48-.8,2.94-2.43-1-2.88.37-5.44.36-8.16-.15-35-.08-69.91-.11-104.86C213.31,161,213.75,159,212.66,156.77Z"/><path class="cls-1" d="M182.82,353.38c-10.23,2.71-20.77,2.56-31.19,3-27.11,1.18-54.22,1.34-81.22-2.12-1.36-.18-2.6-.53-3.69.63L49.39,373.24c51.08,6.73,102.66,6.23,153.92.43-6.28-6.71-12.45-13.33-18.68-19.89A2.19,2.19,0,0,0,182.82,353.38Z"/><path class="cls-1" d="M125.93,141.84a262.5,262.5,0,0,0-29.54,1.33A360.46,360.46,0,0,0,48.19,151c-2.82.69-3.4,1.56-2.17,4.34q10.38,23.49,20.39,47.16c1.22,2.9,2.53,3.31,5.58,2.65,22.58-4.89,45.47-6.09,68.48-4.88,13,.69,26,1.84,38.47,5.27,5.08,1.4,6.08-.07,7.69-3.87,6.28-14.84,12.78-29.59,19.24-44.37,2.54-5.81,2.56-5.8-3.87-7.22A339.26,339.26,0,0,0,125.93,141.84Z"/><path class="cls-2" d="M240.62,163.61a73.59,73.59,0,0,0-9.23-3.79c-2.8-1-4.3-2.37-4.26-5.71.07-6.49-.45-13-.63-19.47-.82-29.29-1.56-58.59-2.44-87.88a56,56,0,0,0-1.85-14.33c-4.16-14.09-13.1-24.32-27.32-27.53S165.57.87,150.8.42C119.56-.52,88.39-.12,57.27,4.13c-19.56,2.66-31.56,18.48-33,35.65C23,54.86,22.81,70,22.38,85.18c-.61,21.64-1,43.29-1.43,64.93-.1,5.27-.65,9.89-7.24,10.85-1.92.28-3.73,1.39-5.53,2.24A14.36,14.36,0,0,0,.27,179c.79,3.94,2.6,5.57,6.63,3.76,3-1.35,6.25-2.34,9.26-3.75s4.17-.71,4,2.69c-.31,8.15-.6,16.31-.62,24.46-.07,29.92,0,59.84,0,89.76-.15,34.65-.73,69.3.49,103.94.6,17.14-.38,34.32,1.09,51.44,1.68,19.66,18.77,38.12,38.16,40.8A493.45,493.45,0,0,0,111.54,496c23.5.74,46.93-.74,70.32-3,25.64-2.43,42.43-18,44.64-43.58,1.57-18.21,1.55-36.59,1.54-54.9,0-49.92,1.4-99.83-.24-149.76-.36-11.24-.53-22.64.21-34,.6-9.27-.3-18.63-.48-27.95-.1-5.46.45-5.77,5.66-3.62,2.93,1.2,5.88,2.34,8.81,3.52,3.23,1.3,4.91.18,5.79-3.17A13.88,13.88,0,0,0,240.62,163.61Zm-34.75-6.29c-6.46,14.78-13,29.53-19.24,44.37-1.61,3.8-2.61,5.27-7.69,3.87-12.49-3.43-25.5-4.58-38.47-5.27-23-1.21-45.9,0-68.48,4.88-3,.66-4.36.25-5.58-2.65q-10-23.65-20.39-47.16c-1.23-2.78-.65-3.65,2.17-4.34a360.46,360.46,0,0,1,48.2-7.85,262.5,262.5,0,0,1,29.54-1.33A339.26,339.26,0,0,1,202,150.1C208.43,151.52,208.41,151.51,205.87,157.32ZM186.68,7.88c9.06,0,16.4,3.51,16.4,7.84s-7.34,7.85-16.4,7.85-16.4-3.51-16.4-7.85S177.62,7.88,186.68,7.88ZM87.26,8.2c24.57-2.23,49.13-3,73.69,0,1.47.18,3,.16,2.65,2.54s-1.69,2.09-3.27,1.77c-24.23-2.77-48.47-2.27-72.7.1-1.43.14-3.17.67-3.49-1.58S85.52,8.35,87.26,8.2ZM61.57,7.88c9.06,0,16.4,3.51,16.4,7.84s-7.34,7.85-16.4,7.85-16.4-3.51-16.4-7.85S52.52,7.88,61.57,7.88ZM39.92,197.57V158.65l1.21-.26c3.65,8.31,7.32,16.6,10.95,24.91,3.33,7.62,6.41,15.35,10,22.83,1.7,3.51.67,6.81.68,10.22q0,21.19.06,42.38c0,5.16-.14,10.33,0,15.48.09,2.94-.73,4.16-3.92,4a141,141,0,0,0-15,0c-3.36.17-4.15-1.07-4.14-4.28C40,248.47,39.92,223,39.92,197.57Zm5.57,169.86c-1.23,1.09-2.12,3.64-4.3,2.44-1.81-1-1.25-3.28-1.26-5.07q0-15.75,0-31.49v-6.5c0-12.83.11-25.66-.09-38.49,0-3.54,1.05-4.7,4.52-4.51a101.21,101.21,0,0,0,13.49,0c4.18-.32,5,1.47,5,5.23-.15,17.16-.64,34.36.19,51.48.38,7.83-1.72,13.13-7.75,17.69C51.73,360.88,48.84,364.44,45.49,367.43ZM168.3,489.26a365.16,365.16,0,0,1-43.32,2c-13.88.16-29.16-.76-44.43-2-2.34-.19-4.78.08-4.2-3.7.49-3.17,1.41-4.24,5.05-3.93,28.72,2.41,57.49,3.25,86.22,0,3.34-.37,3.88.92,4.39,3.55C172.64,488.43,171.12,489,168.3,489.26Zm-118.91-116,17.33-18.33c1.09-1.16,2.33-.81,3.69-.63,27,3.46,54.11,3.3,81.22,2.12,10.42-.46,21-.31,31.19-3a2.19,2.19,0,0,1,1.81.4c6.23,6.56,12.4,13.18,18.68,19.89C152.05,379.47,100.47,380,49.39,373.24Zm163.92-47.06q0,18.46,0,36.93c0,1.16,0,2.33-.05,3.49-.13,1.71-.58,3.51-2.15,4.26-1.74.82-2.56-1.08-3.57-2-6-5.7-12-11.49-18-17.18a4.8,4.8,0,0,1-1.69-3.89c.16-19.46.44-38.91.21-58.37-.06-5,1.46-6.25,6.13-5.88a120.44,120.44,0,0,0,15,0c3.23-.14,4.32.91,4.28,4.23C213.21,300.56,213.31,313.37,213.31,326.18ZM213.06,276c.54,1.63-1.22,2.44-2.94,2.43-6.33,0-12.66-.11-19,0-2.52,0-3-1.13-3-3.34q.13-23.23.1-46.46c0-5.58.82-11.21-.78-16.72a2.12,2.12,0,0,1,.07-1.41c9.37-17.05,15.65-35.5,24-53,.1-.22.53-.29,1.2-.64,1.09,2.22.65,4.23.65,6.16,0,34.95,0,69.91.11,104.86C213.43,270.51,212.1,273.07,213.06,276Z"/></g></g></svg>